<?xml version="1.0" encoding="UTF-8"?>
<svg xmlns="http://www.w3.org/2000/svg" xmlns:xlink="http://www.w3.org/1999/xlink" width="200px" height="52px" viewBox="0 0 46 52" version="1.1">
<defs>
<linearGradient id="linear0" gradientUnits="userSpaceOnUse" x1="26.2047" y1="17.819" x2="49.4103" y2="17.819" >
<stop offset="0" style="stop-color:rgb(0%,24.705882%,100%);stop-opacity:1;"/>
<stop offset="0.6883" style="stop-color:rgb(41.176471%,3.921569%,100%);stop-opacity:1;"/>
</linearGradient>
<linearGradient id="linear1" gradientUnits="userSpaceOnUse" x1="3" y1="8.52236" x2="26.223" y2="8.52236" >
<stop offset="0.2862" style="stop-color:rgb(90.980392%,26.27451%,63.137255%);stop-opacity:1;"/>
<stop offset="1" style="stop-color:rgb(0%,24.705882%,100%);stop-opacity:1;"/>
</linearGradient>
<linearGradient id="linear2" gradientUnits="userSpaceOnUse" x1="3" y1="13.1634" x2="49.4284" y2="13.1634" >
<stop offset="0.16" style="stop-color:rgb(90.980392%,26.27451%,63.137255%);stop-opacity:1;"/>
<stop offset="0.84" style="stop-color:rgb(41.176471%,3.921569%,100%);stop-opacity:1;"/>
</linearGradient>
</defs>
<g id="surface1">
<path style="fill:none;stroke-width:6;stroke-linecap:butt;stroke-linejoin:miter;stroke:url(#linear0);stroke-miterlimit:10;" d="M 26.205842 13.167412 C 29.619565 17.804689 33.101223 22.441966 39.962636 22.441966 C 45.17663 22.441966 49.405571 18.273439 49.405571 13.167412 " transform="matrix(0.23,0,0,0.233333,0,22.966667)"/>
<path style="fill:none;stroke-width:6;stroke-linecap:butt;stroke-linejoin:miter;stroke:url(#linear1);stroke-miterlimit:10;" d="M 3.006114 13.167412 C 3.006114 8.061385 7.235054 3.876116 12.449049 3.876116 C 19.293478 3.876116 22.775136 8.530135 26.205842 13.167412 " transform="matrix(0.23,0,0,0.233333,0,22.966667)"/>
<path style="fill:none;stroke-width:6;stroke-linecap:butt;stroke-linejoin:miter;stroke:url(#linear2);stroke-miterlimit:10;" d="M 49.405571 13.167412 C 49.405571 8.061385 45.17663 3.876116 39.962636 3.876116 C 33.101223 3.876116 29.636549 8.530135 26.205842 13.167412 C 22.775136 17.804689 19.293478 22.441966 12.449049 22.441966 C 7.235054 22.441966 3.006114 18.273439 3.006114 13.167412 " transform="matrix(0.23,0,0,0.233333,0,22.966667)"/>
<path style=" stroke:none;fill-rule:nonzero;fill:rgb(0%,0%,0%);fill-opacity:1;" d="M 14.945312 28.867188 L 14.945312 23.195312 L 15.675781 23.195312 L 15.675781 28.128906 L 17.96875 28.128906 L 17.96875 28.867188 Z M 18.703125 24.378906 L 18.703125 23.589844 L 19.4375 23.589844 L 19.4375 24.378906 Z M 18.703125 28.867188 L 18.703125 24.773438 L 19.4375 24.773438 L 19.4375 28.867188 Z M 28.605469 24.378906 L 28.605469 23.589844 L 29.339844 23.589844 L 29.339844 24.378906 Z M 28.605469 28.867188 L 28.605469 24.773438 L 29.339844 24.773438 L 29.339844 28.867188 Z M 23.550781 26.265625 C 23.527344 26.105469 23.492188 25.933594 23.433594 25.761719 C 23.378906 25.589844 23.285156 25.425781 23.183594 25.28125 C 23.070312 25.132812 22.929688 25.007812 22.75 24.921875 C 22.566406 24.835938 22.347656 24.785156 22.082031 24.785156 C 21.742188 24.785156 21.453125 24.859375 21.214844 25.019531 C 21.097656 25.09375 21.007812 25.179688 20.914062 25.28125 L 20.914062 24.785156 L 20.183594 24.785156 L 20.183594 28.878906 L 20.914062 28.878906 L 20.914062 26.847656 L 20.925781 26.847656 C 20.925781 26.597656 20.949219 26.402344 21.007812 26.230469 C 21.054688 26.058594 21.121094 25.921875 21.214844 25.824219 C 21.304688 25.722656 21.410156 25.648438 21.523438 25.601562 C 21.636719 25.550781 21.761719 25.527344 21.902344 25.527344 C 22.105469 25.527344 22.265625 25.574219 22.394531 25.660156 C 22.519531 25.75 22.609375 25.871094 22.691406 26.007812 C 22.757812 26.15625 22.804688 26.304688 22.828125 26.476562 C 22.851562 26.648438 22.863281 26.808594 22.863281 26.96875 L 22.863281 28.878906 L 23.605469 28.878906 L 23.605469 26.699219 C 23.585938 26.574219 23.574219 26.425781 23.550781 26.265625 Z M 42.058594 26.265625 C 42.035156 26.105469 42 25.933594 41.941406 25.761719 C 41.886719 25.589844 41.792969 25.425781 41.691406 25.28125 C 41.578125 25.132812 41.441406 25.007812 41.257812 24.921875 C 41.074219 24.835938 40.855469 24.785156 40.59375 24.785156 C 40.25 24.785156 39.960938 24.859375 39.722656 25.019531 C 39.605469 25.09375 39.515625 25.179688 39.421875 25.28125 L 39.421875 24.785156 L 38.691406 24.785156 L 38.691406 28.878906 L 39.421875 28.878906 L 39.421875 26.847656 L 39.4375 26.847656 C 39.4375 26.597656 39.457031 26.402344 39.515625 26.230469 C 39.5625 26.058594 39.628906 25.921875 39.722656 25.824219 C 39.8125 25.722656 39.917969 25.648438 40.03125 25.601562 C 40.144531 25.550781 40.269531 25.527344 40.410156 25.527344 C 40.613281 25.527344 40.773438 25.574219 40.902344 25.660156 C 41.027344 25.75 41.117188 25.871094 41.1875 26.007812 C 41.257812 26.15625 41.300781 26.304688 41.324219 26.476562 C 41.347656 26.648438 41.359375 26.808594 41.359375 26.96875 L 41.359375 28.878906 L 42.105469 28.878906 L 42.105469 26.699219 C 42.09375 26.574219 42.082031 26.425781 42.058594 26.265625 Z M 27.570312 27.03125 L 27.9375 27.03125 C 27.960938 26.5625 27.914062 26.167969 27.777344 25.824219 C 27.640625 25.488281 27.433594 25.21875 27.171875 25.046875 C 26.894531 24.859375 26.5625 24.773438 26.1875 24.773438 C 25.820312 24.773438 25.488281 24.859375 25.214844 25.03125 C 24.9375 25.207031 24.71875 25.441406 24.558594 25.761719 C 24.398438 26.070312 24.332031 26.4375 24.332031 26.859375 C 24.332031 27.253906 24.410156 27.609375 24.570312 27.917969 C 24.730469 28.226562 24.949219 28.460938 25.234375 28.621094 C 25.523438 28.792969 25.855469 28.878906 26.230469 28.878906 C 26.597656 28.878906 26.929688 28.78125 27.238281 28.597656 C 27.539062 28.410156 27.765625 28.140625 27.914062 27.796875 L 27.195312 27.5625 C 27.101562 27.757812 26.964844 27.917969 26.804688 28.015625 C 26.632812 28.128906 26.4375 28.179688 26.210938 28.179688 C 25.855469 28.179688 25.589844 28.066406 25.40625 27.832031 C 25.257812 27.636719 25.167969 27.375 25.144531 27.054688 L 27.570312 27.054688 Z M 25.375 25.796875 C 25.558594 25.5625 25.832031 25.441406 26.199219 25.441406 C 26.53125 25.441406 26.78125 25.550781 26.941406 25.761719 C 27.058594 25.910156 27.136719 26.128906 27.171875 26.402344 L 25.121094 26.402344 C 25.167969 26.15625 25.257812 25.957031 25.375 25.796875 Z M 31.835938 28.867188 C 31.449219 28.867188 31.117188 28.78125 30.839844 28.597656 C 30.566406 28.425781 30.359375 28.179688 30.210938 27.871094 C 30.0625 27.5625 29.992188 27.203125 29.992188 26.820312 C 29.992188 26.425781 30.074219 26.070312 30.222656 25.761719 C 30.371094 25.453125 30.578125 25.207031 30.851562 25.03125 C 31.128906 24.859375 31.460938 24.773438 31.835938 24.773438 C 32.25 24.773438 32.605469 24.886719 32.902344 25.09375 C 33.199219 25.304688 33.394531 25.601562 33.488281 25.957031 L 32.753906 26.167969 C 32.683594 25.945312 32.558594 25.785156 32.398438 25.660156 C 32.238281 25.539062 32.042969 25.476562 31.824219 25.476562 C 31.585938 25.476562 31.390625 25.539062 31.230469 25.648438 C 31.070312 25.761719 30.957031 25.921875 30.886719 26.128906 C 30.808594 26.328125 30.773438 26.5625 30.773438 26.820312 C 30.773438 27.214844 30.863281 27.550781 31.046875 27.796875 C 31.21875 28.042969 31.484375 28.164062 31.835938 28.164062 C 32.078125 28.164062 32.261719 28.105469 32.410156 27.992188 C 32.558594 27.882812 32.671875 27.722656 32.742188 27.511719 L 33.488281 27.695312 C 33.359375 28.078125 33.15625 28.363281 32.867188 28.574219 C 32.59375 28.769531 32.238281 28.867188 31.835938 28.867188 Z M 36.089844 28.867188 C 35.710938 28.867188 35.378906 28.78125 35.105469 28.609375 C 34.828125 28.4375 34.613281 28.191406 34.460938 27.882812 C 34.3125 27.574219 34.234375 27.214844 34.234375 26.820312 C 34.234375 26.414062 34.3125 26.058594 34.460938 25.75 C 34.625 25.441406 34.828125 25.207031 35.117188 25.03125 C 35.390625 24.859375 35.722656 24.773438 36.089844 24.773438 C 36.464844 24.773438 36.800781 24.859375 37.074219 25.03125 C 37.347656 25.207031 37.566406 25.453125 37.726562 25.761719 C 37.875 26.070312 37.957031 26.425781 37.957031 26.820312 C 37.957031 27.226562 37.875 27.585938 37.726562 27.894531 C 37.578125 28.203125 37.359375 28.4375 37.074219 28.621094 C 36.789062 28.78125 36.464844 28.867188 36.089844 28.867188 Z M 36.089844 28.164062 C 36.457031 28.164062 36.71875 28.042969 36.902344 27.796875 C 37.085938 27.550781 37.175781 27.226562 37.175781 26.820312 C 37.175781 26.414062 37.085938 26.09375 36.902344 25.847656 C 36.71875 25.601562 36.457031 25.476562 36.089844 25.476562 C 35.835938 25.476562 35.640625 25.539062 35.480469 25.648438 C 35.320312 25.761719 35.207031 25.921875 35.125 26.117188 C 35.046875 26.316406 35.011719 26.550781 35.011719 26.808594 C 35.011719 27.214844 35.105469 27.535156 35.289062 27.78125 C 35.460938 28.042969 35.734375 28.164062 36.089844 28.164062 Z M 44.476562 28.867188 C 44.019531 28.867188 43.640625 28.769531 43.34375 28.558594 C 43.058594 28.351562 42.875 28.054688 42.804688 27.683594 L 43.5625 27.5625 C 43.605469 27.757812 43.722656 27.917969 43.882812 28.042969 C 44.054688 28.152344 44.257812 28.214844 44.511719 28.214844 C 44.742188 28.214844 44.921875 28.164062 45.050781 28.066406 C 45.175781 27.96875 45.242188 27.84375 45.242188 27.671875 C 45.242188 27.574219 45.222656 27.5 45.175781 27.4375 C 45.128906 27.375 45.039062 27.316406 44.890625 27.265625 C 44.742188 27.214844 44.523438 27.140625 44.226562 27.054688 C 43.90625 26.96875 43.640625 26.871094 43.445312 26.773438 C 43.25 26.671875 43.113281 26.550781 43.035156 26.425781 C 42.953125 26.289062 42.90625 26.128906 42.90625 25.945312 C 42.90625 25.710938 42.964844 25.5 43.089844 25.328125 C 43.21875 25.15625 43.390625 25.019531 43.605469 24.921875 C 43.824219 24.824219 44.085938 24.773438 44.386719 24.773438 C 44.671875 24.773438 44.933594 24.824219 45.164062 24.910156 C 45.394531 25.007812 45.578125 25.132812 45.714844 25.304688 C 45.851562 25.476562 45.941406 25.675781 45.964844 25.910156 L 45.210938 26.042969 C 45.1875 25.859375 45.09375 25.710938 44.957031 25.601562 C 44.808594 25.488281 44.625 25.425781 44.398438 25.425781 C 44.179688 25.414062 43.996094 25.453125 43.859375 25.539062 C 43.722656 25.625 43.652344 25.734375 43.652344 25.882812 C 43.652344 25.96875 43.675781 26.042969 43.734375 26.105469 C 43.789062 26.167969 43.894531 26.230469 44.042969 26.277344 C 44.191406 26.328125 44.417969 26.402344 44.71875 26.476562 C 45.039062 26.5625 45.289062 26.648438 45.472656 26.757812 C 45.65625 26.859375 45.792969 26.980469 45.875 27.117188 C 45.953125 27.253906 46 27.425781 46 27.621094 C 46 28.003906 45.863281 28.3125 45.585938 28.523438 C 45.335938 28.757812 44.957031 28.867188 44.476562 28.867188 Z M 44.476562 28.867188 "/>
</g>
</svg>
